# xmcd
#
# Track frame offsets:
#	150
#	20521
#	43495
#	57609
#	71993
#	87145
#	109948
#	127178
#	146297
#	171805
#	188683
#
# Disc length: 2794 seconds
#
# Revision: 1
# Processed by: cddbd v1.5.2PL0 Copyright (c) Steve Scherf et al.
# Submitted via: audiograbber 1.83.01
#
DISCID=a60ae80b
DTITLE=Rusty - The Whisky Sessions
DYEAR=2006
DGENRE=Acoustic
TTITLE0=Losing Hand
TTITLE1=Good To Be Alone (feat. Al Lawrence)
TTITLE2=Slow Me Down
TTITLE3=Girl
TTITLE4=Cup of Tea (feat. Al Lawrence)
TTITLE5=Doesn't Seem Right
TTITLE6=Don't Make Them Like You
TTITLE7=So Sweet
TTITLE8=Blue On Black
TTITLE9=Superman
TTITLE10=Ride On (feat. Louise Bedford)
EXTD=Rusty is: Phil Latham and Al Huntley from Scarborough, North Yorkshire, UK
EXTD=
EXTT0=
EXTT1=
EXTT2=
EXTT3=
EXTT4=
EXTT5=
EXTT6=
EXTT7=
EXTT8=
EXTT9=
EXTT10=
PLAYORDER=
